HIERARCHY
ROOT hip
{
  OFFSET 0 0 0
  CHANNELS 6 Xposition Yposition Zposition Zrotation Yrotation Xrotation
  JOINT abdomen
  {
    OFFSET 0 20.6881 -0.73152
    CHANNELS 3 Zrotation Xrotation Yrotation
    JOINT chest
    {
      OFFSET 0 11.7043 -0.48768
      CHANNELS 3 Zrotation Xrotation Yrotation
      JOINT neck
      {
        OFFSET 0 22.1894 -2.19456
        CHANNELS 3 Zrotation Xrotation Yrotation
        JOINT head
        {
          OFFSET -0.24384 7.07133 1.2192
          CHANNELS 3 Zrotation Xrotation Yrotation
          JOINT leftEye
          {
            OFFSET 4.14528 8.04674 8.04672
            CHANNELS 3 Zrotation Xrotation Yrotation
            End Site
            {
              OFFSET 1 0 0
            }
          }
          JOINT rightEye
          {
            OFFSET -3.6576 8.04674 8.04672
            CHANNELS 3 Zrotation Xrotation Yrotation
            End Site
            {
              OFFSET 1 0 0
            }
          }
        }
      }
      JOINT rCollar
      {
        OFFSET -2.68224 19.2634 -4.8768
        CHANNELS 3 Zrotation Xrotation Yrotation
        JOINT rShldr
        {
          OFFSET -8.77824 -1.95073 1.46304
          CHANNELS 3 Zrotation Xrotation Yrotation
          JOINT rForeArm
          {
            OFFSET -28.1742 -1.7115 0.48768
            CHANNELS 3 Zrotation Xrotation Yrotation
            JOINT rHand
            {
              OFFSET -22.5879 0.773209 7.07136
              CHANNELS 3 Zrotation Xrotation Yrotation
              JOINT rThumb1
              {
                OFFSET -1.2192 -0.487915 3.41376
                CHANNELS 3 Zrotation Xrotation Yrotation
                JOINT rThumb2
                {
                  OFFSET -3.37035 -0.52449 3.41376
                  CHANNELS 3 Zrotation Xrotation Yrotation
                  End Site
                  {
                    OFFSET -1.78271 -1.18214 1.43049
                  }
                }
              }
              JOINT rIndex1
              {
                OFFSET -7.75947 0.938293 5.60832
                CHANNELS 3 Zrotation Xrotation Yrotation
                JOINT rIndex2
                {
                  OFFSET -2.54057 -0.884171 1.56538
                  CHANNELS 3 Zrotation Xrotation Yrotation
                  End Site
                  {
                    OFFSET -1.62519 -0.234802 1.16502
                  }
                }
              }
              JOINT rMid1
              {
                OFFSET -8.24714 1.18213 3.41376
                CHANNELS 3 Zrotation Xrotation Yrotation
                JOINT rMid2
                {
                  OFFSET -3.10165 -0.590103 1.0647
                  CHANNELS 3 Zrotation Xrotation Yrotation
                  End Site
                  {
                    OFFSET -2.48547 -0.328903 0.83742
                  }
                }
              }
              JOINT rRing1
              {
                OFFSET -8.82822 0.546677 1.51678
                CHANNELS 3 Zrotation Xrotation Yrotation
                JOINT rRing2
                {
                  OFFSET -2.60934 -0.819778 -0.0198488
                  CHANNELS 3 Zrotation Xrotation Yrotation
                  End Site
                  {
                    OFFSET -2.33842 -0.294052 0.168128
                  }
                }
              }
              JOINT rPinky1
              {
                OFFSET -8.27202 -0.0477905 -0.4584
                CHANNELS 3 Zrotation Xrotation Yrotation
                JOINT rPinky2
                {
                  OFFSET -1.82734 -0.647385 -0.700984
                  CHANNELS 3 Zrotation Xrotation Yrotation
                  End Site
                  {
                    OFFSET -1.69225 -0.51767 -0.607171
                  }
                }
              }
            }
          }
        }
      }
      JOINT lCollar
      {
        OFFSET 2.68224 19.2634 -4.8768
        CHANNELS 3 Zrotation Xrotation Yrotation
        JOINT lShldr
        {
          OFFSET 8.77824 -1.95073 1.46304
          CHANNELS 3 Zrotation Xrotation Yrotation
          JOINT lForeArm
          {
            OFFSET 28.1742 -1.7115 0.48768
            CHANNELS 3 Zrotation Xrotation Yrotation
            JOINT lHand
            {
              OFFSET 22.5879 0.773209 7.07136
              CHANNELS 3 Zrotation Xrotation Yrotation
              JOINT lThumb1
              {
                OFFSET 1.2192 -0.487915 3.41376
                CHANNELS 3 Zrotation Xrotation Yrotation
                JOINT lThumb2
                {
                  OFFSET 3.37035 -0.52449 3.41376
                  CHANNELS 3 Zrotation Xrotation Yrotation
                  End Site
                  {
                    OFFSET 1.78271 -1.18214 1.43049
                  }
                }
              }
              JOINT lIndex1
              {
                OFFSET 7.75947 0.938293 5.60832
                CHANNELS 3 Zrotation Xrotation Yrotation
                JOINT lIndex2
                {
                  OFFSET 2.54057 -0.884171 1.56538
                  CHANNELS 3 Zrotation Xrotation Yrotation
                  End Site
                  {
                    OFFSET 1.62519 -0.234802 1.16502
                  }
                }
              }
              JOINT lMid1
              {
                OFFSET 8.24714 1.18213 3.41376
                CHANNELS 3 Zrotation Xrotation Yrotation
                JOINT lMid2
                {
                  OFFSET 3.10165 -0.590103 1.0647
                  CHANNELS 3 Zrotation Xrotation Yrotation
                  End Site
                  {
                    OFFSET 2.48547 -0.328903 0.83742
                  }
                }
              }
              JOINT lRing1
              {
                OFFSET 8.82822 0.546677 1.51678
                CHANNELS 3 Zrotation Xrotation Yrotation
                JOINT lRing2
                {
                  OFFSET 2.60934 -0.819778 -0.0198488
                  CHANNELS 3 Zrotation Xrotation Yrotation
                  End Site
                  {
                    OFFSET 2.33842 -0.294052 0.168128
                  }
                }
              }
              JOINT lPinky1
              {
                OFFSET 8.27202 -0.0477905 -0.4584
                CHANNELS 3 Zrotation Xrotation Yrotation
                JOINT lPinky2
                {
                  OFFSET 1.82734 -0.647385 -0.700984
                  CHANNELS 3 Zrotation Xrotation Yrotation
                  End Site
                  {
                    OFFSET 1.69225 -0.51767 -0.607171
                  }
                }
              }
            }
          }
        }
      }
    }
  }
  JOINT rButtock
  {
    OFFSET -8.77824 4.35084 1.2192
    CHANNELS 3 Zrotation Xrotation Yrotation
    JOINT rThigh
    {
      OFFSET 0 -1.70687 -2.19456
      CHANNELS 3 Zrotation Xrotation Yrotation
      JOINT rShin
      {
        OFFSET 0 -36.8199 0.73152
        CHANNELS 3 Zrotation Xrotation Yrotation
        JOINT rFoot
        {
          OFFSET 0.73152 -45.1104 -5.12064
          CHANNELS 3 Zrotation Xrotation Yrotation
          End Site
          {
            OFFSET -1.1221 -3.69964 12.103
          }
        }
      }
    }
  }
  JOINT lButtock
  {
    OFFSET 8.77824 4.35084 1.2192
    CHANNELS 3 Zrotation Xrotation Yrotation
    JOINT lThigh
    {
      OFFSET 0 -1.70687 -2.19456
      CHANNELS 3 Zrotation Xrotation Yrotation
      JOINT lShin
      {
        OFFSET 0 -36.8199 0.73152
        CHANNELS 3 Zrotation Xrotation Yrotation
        JOINT lFoot
        {
          OFFSET -0.73152 -45.1104 -5.12064
          CHANNELS 3 Zrotation Xrotation Yrotation
          End Site
          {
            OFFSET 1.1221 -3.69964 12.103
          }
        }
      }
    }
  }
}
MOTION
Frames:	7
Frame Time:	0.03333
0.0 0.0 0.0 0.0 0.0 0.0 0.0 0.0 0.0 0.0 0.0 0.0 0.0 0.0 0.0 0.0 0.0 0.0 0.0 0.0 0.0 0.0 0.0 0.0 0.0 0.0 0.0 0.0 0.0 0.0 0.0 0.0 0.0 0.0 0.0 0.0 0.0 0.0 0.0 0.0 0.0 0.0 0.0 0.0 0.0 0.0 0.0 0.0 0.0 0.0 0.0 0.0 0.0 0.0 0.0 0.0 0.0 0.0 0.0 0.0 0.0 0.0 0.0 0.0 0.0 0.0 0.0 0.0 0.0 0.0 0.0 0.0 0.0 0.0 0.0 0.0 0.0 0.0 0.0 0.0 0.0 0.0 0.0 0.0 0.0 0.0 0.0 0.0 0.0 0.0 0.0 0.0 0.0 0.0 0.0 0.0 0.0 0.0 0.0 0.0 0.0 0.0 0.0 0.0 0.0 0.0 0.0 0.0 0.0 0.0 0.0 0.0 0.0 0.0 0.0 0.0 0.0 0.0 0.0 0.0 0.0 0.0 0.0 0.0 0.0 0.0 0.0 0.0 0.0 0.0 0.0 0.0
0.5049 62.957300000000004 -0.1679 -18.790562 39.211749 -7.431881 10.249466 7.363959 91.463187 -6.083372 -7.596772 -91.923146 -6.756447 15.071655 -44.877218 27.46275 -8.834902 71.695812 -0.000484 -0.0 1.5e-05 -0.000286 0.0 -0.002705 -2.551383 12.992362 3.205099 74.455202 20.843573 -27.2039 -2.731524 -5.423575 110.983555 -12.445551 -45.785745 -11.664711 163.41011 -31.342354 84.581753 -139.994372 17.982942 78.902811 102.901393 -76.23343 52.694174 3.951955 20.424862 -1.34901 -162.687754 -13.01587 144.097714 -166.813292 -15.399949 143.753385 -145.104299 3.938164 179.632498 -150.335527 -36.467471 -172.677958 -155.341301 49.739796 -149.595817 -19.357155 -34.594608 -20.331717 3.073918 15.192009 -3.826537 118.700537 33.314224 -54.133875 163.225376 -10.572502 93.067005 4.444429 2.100014 1.560422 15.804283 14.470638 -4.375641 4.445035 4.842406 -12.616578 26.596737 30.071096 -19.412585 3.382198 15.441617 -2.394017 22.591832 41.643719 -17.527804 0.089773 9.79816 -1.638696 145.122469 0.984413 179.438033 138.550216 -60.879412 160.534449 154.044788 44.624703 148.828707 16.565895 -31.698055 17.824007 -179.992171 75.749095 -0.005242 128.626552 72.287507 144.567956 49.653615 -15.188312 67.5495 71.006364 4.813798 166.970896 -179.994117 75.74897 -0.004116 -143.006761 -8.390361 34.228849 89.436949 44.824845 -17.325464 28.386913 -73.439813 -65.035343
0.9531 62.9223 -0.2056 -18.923643 39.318016 -7.110682 10.32778 6.71053 108.980042 -7.433389 -5.419848 -109.211625 7.909344 28.85376 157.649716 -15.619139 37.442126 -128.53396 -0.001074 0.0 -0.001577 -0.001265 -0.0 0.001131 -153.14054 9.598885 158.778326 -44.982179 -2.089012 57.535269 27.871452 -3.395147 -148.03805 -120.750554 48.111223 102.491113 172.985155 -23.797595 87.787452 -18.513745 -47.025073 -6.511333 -16.913992 21.973495 11.613369 -158.602701 -5.526859 110.233627 -167.144833 -27.290377 145.242295 -29.956277 52.094149 25.017946 0.000509 0.135508 0.043001 -146.032024 50.83631 160.479447 5.650087 16.831822 5.07606 7.913012 18.139644 4.567208 70.945026 68.256223 -73.942805 122.113157 -53.73582 61.810441 -158.84359 56.216216 -79.471764 -179.711403 -0.986841 -143.576291 136.818012 21.713716 -80.586059 -175.023637 -28.118836 -80.301737 13.508191 18.418889 -9.020899 -172.251167 -41.791595 -102.910393 158.603719 -0.435061 -142.190557 -172.631089 -58.979214 -136.38596 145.106138 3.721922 -179.70132 152.995851 -23.110722 175.725423 -36.414662 84.831241 -2.375972 146.543106 5.923079 141.205746 -0.002925 -0.00097 -0.001041 -11.432173 3.165394 -96.606828 -37.355077 -0.063963 81.800823 67.598513 -41.636337 -5.877571 -0.004961 0.000558 -0.002368 87.082871 -54.265768 177.625036 93.770416 -6.287886 159.078446 114.858757 -38.070602 -164.224442
1.6334000000000002 62.938700000000004 -0.22169999999999998 -19.194754 39.389674 -6.752854 10.58304 6.66881 109.190904 -7.538752 -5.26887 -109.044224 8.428011 28.450323 153.75585 -17.723639 36.475277 -124.304686 0.003416 -0.0 -0.000886 0.003416 -0.0 -0.000886 -154.945952 -0.025193 161.081236 -100.883376 30.100702 66.631652 -112.273645 53.368261 -122.540995 -14.139297 -77.025593 -24.601558 3.99705 -3.979263 -0.47782 -36.303626 26.968604 30.538658 -157.972038 -29.382504 122.565234 -96.970109 54.399313 78.640363 -0.945494 2.711135 0.538386 -174.068372 -36.624905 143.677747 0.000234 0.038253 0.012328 4.7516 39.734748 7.190593 -65.544155 -51.688031 -64.110993 -164.400597 66.422265 -147.723477 -2.696983 -20.503759 4.094145 -22.225247 -15.573579 -93.95171 -175.828961 17.343986 -61.233379 -178.157698 -6.865305 -143.596471 161.398742 0.896976 -89.120426 153.492431 -1.32915 -76.851842 -34.279359 -55.139148 2.140828 159.165185 -18.471475 -113.237212 -1.572969 -4.691531 0.82718 152.92477 22.618027 -137.944992 145.109722 -0.788 178.880305 -0.503668 81.935565 -12.040299 159.343918 64.062454 151.03396 158.116703 43.058959 147.076009 179.998404 75.751102 0.001029 128.980807 75.188859 7.495226 -18.655739 38.048306 135.01071 -124.496254 -29.687941 166.100047 0.007095 -0.001074 0.007636 87.809178 -54.413634 179.037527 91.914482 -6.692916 -179.794053 135.416568 -45.659556 -136.629038
2.4549000000000003 62.999 -0.22599999999999998 -19.429605 39.595218 -6.435338 10.714073 7.728482 79.198522 -5.208617 -8.648347 -78.618085 -8.348877 17.936428 -62.896429 32.779542 -0.409015 87.645327 -0.000173 0.0 -0.000495 -0.000173 0.0 -0.000495 -159.217341 -47.206706 170.236675 129.06494 -22.016105 172.596277 9.315267 -28.405696 114.37347 -14.426485 -32.747842 -8.251471 -16.122663 14.730902 4.49968 -47.051921 21.644495 47.53619 -140.218267 2.241877 115.909819 -166.199305 -21.156084 118.906693 3.114087 -9.465987 -1.539611 -146.582808 34.23768 133.275338 -145.114099 -0.322031 -179.027372 11.791148 56.624435 -2.072143 6.286178 18.990687 5.623865 -20.682578 -38.005146 -21.164737 -4.26601 -46.45699 9.004945 93.193376 -10.037439 -101.668809 116.965822 -23.889819 56.304252 -9.155827 -38.622393 -1.144999 131.823608 24.88577 -77.998633 -37.090003 -46.117395 -31.325516 11.846993 16.531178 -7.790483 153.738468 0.510715 -109.351272 164.550383 -19.001244 -144.709978 175.348243 -38.866535 -142.926298 0.013537 -1.122333 0.351009 -10.836355 -6.463675 0.861296 131.643223 -19.519028 129.195172 4.051524 -15.309238 7.592565 -0.00073 0.0001 -0.000886 -10.725305 4.946269 -75.038542 -31.151572 17.548236 121.893996 -19.431709 -39.792353 -91.745119 179.999395 75.749542 0.000788 -141.795341 -9.575735 -40.78121 -93.648924 45.872234 -7.69141 -6.634842 51.253973 104.644126
3.4624 63.1158 -0.25539999999999996 -19.459279 39.716793 -5.882569 10.590801 6.949746 89.681671 -6.330719 -7.746066 -88.828994 0.827144 30.364419 -163.299049 8.318565 41.893606 -175.165529 -0.000851 -0.0 0.001992 0.003994 -0.0 -0.006471 -158.121374 -25.690092 166.122778 -111.097854 55.315701 61.752051 65.042651 -79.25147 -84.96095 -142.19878 34.835497 124.058783 127.22611 -47.945459 64.385719 -19.828092 -47.73455 -25.649387 -142.720644 -1.803724 117.330453 -89.1731 56.200394 69.055339 -165.92677 -23.42773 145.040557 11.428587 -24.772213 -1.151773 0.006116 1.578242 0.494965 -156.680415 -39.015869 176.506089 -144.095658 8.731224 -140.857844 -1.765482 -9.539324 -5.333232 159.015077 -39.464905 -168.677015 77.016711 -19.285796 160.175077 -163.639547 -60.968885 112.966444 11.692858 20.487651 -0.349451 -14.095458 -14.02527 0.441979 41.512075 30.747668 -30.356164 -179.701183 -59.167162 -116.55088 175.35394 -44.35787 -113.045694 162.574056 -12.650334 -144.054918 -13.584889 -30.672758 0.935791 145.100408 -1.483282 178.661805 -12.164209 34.016809 5.148668 -24.446713 77.344818 -11.682485 127.807927 -30.640446 124.820403 -179.990192 75.749854 -0.008125 127.25709 77.094379 -14.155881 -25.567025 19.746699 104.072547 -116.440786 55.494288 31.796765 0.022576 -0.000208 0.018056 88.349838 -54.116732 174.583737 92.71981 -0.528199 -176.684844 -1.523683 65.277895 91.028317
4.646999999999999 63.3386 -0.3598 -19.146272 39.944721 -4.89145 11.557658 8.562388 24.748198 2.419042 -10.441772 -22.911734 6.567391 11.599509 38.071 -15.460986 -18.340363 -16.829574 -0.001919 0.0 -0.000974 0.003709 -0.0 -0.001788 -0.828573 4.69741 1.080209 -3.508052 -51.955676 -70.536555 149.443344 54.882571 -37.061081 -18.17086 -12.824356 -2.92386 -10.181467 9.642408 2.397979 -112.691452 -6.094877 101.078612 -79.930155 42.820549 66.575145 -1.706366 12.229373 -2.023437 173.032805 -66.383021 137.548485 -3.809561 18.063677 3.785404 -145.121129 1.869187 -179.716778 6.609394 -27.458658 -13.378779 43.923007 86.272018 -4.59791 172.477749 81.529504 -131.796665 -3.320963 -63.559158 13.56724 -85.365078 7.412361 -59.250589 -141.566165 -35.982431 -28.912534 172.672536 18.696907 -141.195126 165.815196 -3.48676 -89.700948 149.621561 2.569039 -75.703757 -14.949579 -26.840332 5.664371 5.085177 24.877037 -6.572468 173.3198 -44.780444 -144.861366 172.966579 -32.812486 -143.603331 0.008748 -0.82591 0.257973 151.765207 30.189853 -166.998219 148.010891 21.568604 144.275623 141.662906 -4.303343 137.139365 -179.76326 75.749441 -0.185778 127.697163 77.322562 -71.418555 -25.884541 -14.766999 97.369274 82.443957 -33.660218 -1.812001 -0.002112 0.000105 6e-06 88.117495 -51.575948 -0.365666 -87.615665 12.234716 90.293383 -127.447646 -40.084764 -9.858614
